HIERARCHY
ROOT root
{
	OFFSET 0.000000 0.000000 0.000000
	CHANNELS 6 Xposition Yposition Zposition Zrotation Yrotation Xrotation
	JOINT lhip
	{
		OFFSET 0.058581 -0.082280 -0.017664
		CHANNELS 3 Zrotation Yrotation Xrotation
		JOINT lknee
		{
			OFFSET 0.043451 -0.386469 0.008037
			CHANNELS 3 Zrotation Yrotation Xrotation
			JOINT lankle
			{
				OFFSET -0.014790 -0.426874 -0.037428
				CHANNELS 3 Zrotation Yrotation Xrotation
				JOINT ltoe
				{
					OFFSET 0.041054 -0.060286 0.122042
					CHANNELS 3 Zrotation Yrotation Xrotation
					End Site
					{
						OFFSET 0.000000 0.000000 0.000000
					}
				}
			}
		}
	}
	JOINT rhip
	{
		OFFSET -0.060310 -0.090513 -0.013543
		CHANNELS 3 Zrotation Yrotation Xrotation
		JOINT rknee
		{
			OFFSET -0.043257 -0.383688 -0.004843
			CHANNELS 3 Zrotation Yrotation Xrotation
			JOINT rankle
			{
				OFFSET 0.019056 -0.420046 -0.034562
				CHANNELS 3 Zrotation Yrotation Xrotation
				JOINT rtoe
				{
					OFFSET -0.034840 -0.062106 0.130323
					CHANNELS 3 Zrotation Yrotation Xrotation
					End Site
					{
						OFFSET 0.000000 0.000000 0.000000
					}
				}
			}
		}
	}
	JOINT lowerback
	{
		OFFSET 0.004439 0.124404 -0.038385
		CHANNELS 3 Zrotation Yrotation Xrotation
		JOINT upperback
		{
			OFFSET 0.004488 0.137956 0.026820
			CHANNELS 3 Zrotation Yrotation Xrotation
			JOINT chest
			{
				OFFSET -0.002265 0.056032 0.002855
				CHANNELS 3 Zrotation Yrotation Xrotation
				JOINT lowerneck
				{
					OFFSET -0.013390 0.211636 -0.033468
					CHANNELS 3 Zrotation Yrotation Xrotation
					JOINT upperneck
					{
						OFFSET 0.010113 0.088937 0.050410
						CHANNELS 3 Zrotation Yrotation Xrotation
						End Site
						{
							OFFSET 0.000000 0.000000 0.000000
						}
					}
				}
				JOINT lclavicle
				{
					OFFSET 0.071702 0.114000 -0.018898
					CHANNELS 3 Zrotation Yrotation Xrotation
					JOINT lshoulder
					{
						OFFSET 0.122921 0.045205 -0.019046
						CHANNELS 3 Zrotation Yrotation Xrotation
						JOINT lelbow
						{
							OFFSET 0.255332 -0.015649 -0.022946
							CHANNELS 3 Zrotation Yrotation Xrotation
							JOINT lwrist
							{
								OFFSET 0.265709 0.012698 -0.007375
								CHANNELS 3 Zrotation Yrotation Xrotation
								End Site
								{
									OFFSET 0.000000 0.000000 0.000000
								}
							}
						}
					}
				}
				JOINT rclavicle
				{
					OFFSET -0.082954 0.112472 -0.023707
					CHANNELS 3 Zrotation Yrotation Xrotation
					JOINT rshoulder
					{
						OFFSET -0.113228 0.046853 -0.008472
						CHANNELS 3 Zrotation Yrotation Xrotation
						JOINT relbow
						{
							OFFSET -0.260127 -0.014369 -0.031269
							CHANNELS 3 Zrotation Yrotation Xrotation
							JOINT rwrist
							{
								OFFSET -0.269108 0.006794 -0.006027
								CHANNELS 3 Zrotation Yrotation Xrotation
								End Site
								{
									OFFSET 0.000000 0.000000 0.000000
								}
							}
						}
					}
				}
			}
		}
	}
}
MOTION
Frames: 10
Frame Time: 0.033333
0.007087 -0.537445 0.993650 77.589135 -0.734253 88.628454 3.304011 3.695852 4.275022 -0.902129 -5.273470 2.848791 2.661860 11.430937 -11.637823 0.000000 -0.000000 0.000000 2.453047 2.218330 0.616876 0.533521 13.234437 7.836283 1.991219 1.367850 -11.378432 0.000000 -0.000000 0.000000 0.986371 -1.258972 4.840870 0.638211 -1.142617 0.655440 -2.350557 -0.966875 2.111418 3.165165 -2.851111 -9.501198 -1.384453 -11.606213 14.576590 -34.729760 2.261125 -2.614786 -50.893947 -7.418511 8.376787 9.009954 -19.503096 3.162867 0.915610 -2.335094 4.539833 31.454125 -2.546312 2.603332 50.209134 3.639940 15.245571 -14.279567 26.073035 2.074534 3.885135 1.978774 6.585581 
0.007732 -0.538670 0.993156 77.910129 -0.852428 88.804884 3.252667 3.412940 4.078113 -0.958039 -5.826833 3.049641 2.509109 11.867043 -11.593098 0.000000 -0.000000 0.000000 2.400139 2.505047 0.848943 0.640624 14.179972 7.516890 2.419461 -0.186164 -11.357985 0.000000 -0.000000 0.000000 1.163478 -1.226942 4.179788 0.492061 -1.219528 1.131662 -2.627848 -1.016435 2.322675 3.335911 -2.744055 -9.290928 -1.356626 -11.110516 14.278984 -34.102684 2.706384 -2.118811 -51.502096 -8.168118 8.485315 9.265298 -20.130898 3.760091 0.848415 -2.309224 3.379175 31.139124 -1.477217 1.891039 51.072954 2.529895 16.136999 -15.030823 25.947156 2.091334 3.961394 1.807761 5.729466 
0.008183 -0.540247 0.992560 78.141444 -0.867371 88.862418 3.348648 3.201956 3.774378 -1.109574 -6.284958 3.733240 2.306875 12.125233 -12.058649 0.000000 -0.000000 0.000000 2.546393 2.496141 0.947735 0.609165 14.450490 7.561371 2.243560 -0.670090 -11.503221 0.000000 -0.000000 0.000000 1.239464 -1.082700 3.942879 0.509138 -1.216453 1.363810 -2.677147 -0.971303 2.411769 3.162133 -2.240747 -9.058808 -1.333162 -10.689140 14.247553 -33.708543 2.807568 -2.011471 -51.852499 -8.307675 8.478489 9.384122 -20.807030 3.891518 1.023226 -2.273137 2.743033 30.859197 -0.940091 1.558477 51.413442 1.965581 16.445558 -15.084267 25.859947 2.292581 3.990953 1.856150 5.234327 
0.009481 -0.542454 0.991920 78.322476 -0.963149 88.743299 3.504813 3.187858 3.212951 -1.434539 -6.377626 5.386580 1.750866 11.992098 -13.057781 0.000000 -0.000000 0.000000 2.594945 2.403549 1.344288 0.590578 14.708851 7.509000 2.056771 -0.946065 -11.782515 0.000000 -0.000000 0.000000 1.250126 -0.903650 3.565068 0.569809 -1.183692 1.859004 -2.653754 -0.883860 2.631428 2.724260 -1.169068 -8.719756 -1.537832 -9.982775 14.651493 -33.614886 2.864534 -2.054262 -51.871412 -8.449598 8.291443 9.689718 -21.767470 3.447348 1.520279 -2.213382 2.348416 30.781065 -0.540953 1.171286 51.102820 1.942499 16.609710 -14.216876 25.530675 2.437967 3.810868 1.904852 5.064264 
0.010907 -0.544444 0.991451 78.446657 -1.044703 88.501888 3.777047 3.197737 2.769244 -1.929265 -5.931917 7.118356 1.149214 11.362563 -14.115298 0.000000 -0.000000 0.000000 2.615019 2.172776 1.730699 0.608374 14.703650 7.536398 2.030403 -0.921895 -12.174137 0.000000 -0.000000 0.000000 1.150344 -0.703295 3.464955 0.689572 -1.212100 2.263242 -2.519532 -0.851780 2.659850 2.332769 -0.320409 -8.614938 -1.799947 -9.643259 15.264414 -33.531137 2.651543 -2.116582 -51.793572 -8.313574 8.253796 9.678838 -22.215728 3.416973 1.986721 -2.209746 2.187639 30.638750 -0.316379 1.052343 50.915333 2.105123 16.449490 -13.453683 24.694566 2.140405 3.531626 2.198159 5.053996 
0.012307 -0.545258 0.991155 78.660873 -1.055561 87.716630 4.317406 2.807278 1.894855 -2.757089 -4.557672 10.432905 1.205263 10.175392 -15.769124 0.000000 -0.000000 0.000000 2.506622 1.635349 2.002766 0.833351 12.951168 8.332391 1.723061 1.301791 -12.891721 0.000000 -0.000000 0.000000 0.938489 -0.544221 5.135814 0.939589 -0.794512 1.051897 -1.892515 -0.681920 2.347804 1.928015 0.198503 -8.127769 -2.633306 -8.707981 17.416051 -35.051325 2.436301 -2.890531 -50.396360 -7.299212 8.250748 9.733325 -22.601119 2.402783 1.951584 -2.254438 3.339884 32.103965 -2.985163 3.447878 47.666866 5.682122 15.002465 -11.601760 24.337109 2.770182 3.213296 2.193497 7.575881 
0.013386 -0.546314 0.990675 79.039898 -1.122186 87.375999 4.560744 2.618928 0.990791 -3.316806 -4.447462 12.779150 1.075246 10.058268 -15.994487 0.000000 -0.000000 0.000000 2.457212 1.381585 2.432517 0.954575 13.033238 8.346980 1.604113 1.106637 -13.013083 0.000000 -0.000000 0.000000 1.108970 -0.345942 5.717422 0.789976 -0.788097 0.757207 -2.012256 -0.451600 2.477080 2.064098 0.180731 -7.488421 -2.468307 -7.997335 17.542054 -34.807559 2.575985 -2.578719 -50.413633 -7.570443 8.109487 9.887735 -22.893839 2.593018 1.730411 -2.359617 2.970372 32.240793 -2.738966 3.844228 47.586594 5.233903 15.101403 -11.949543 24.803818 2.639865 3.325841 2.073529 6.987460 
0.013853 -0.547377 0.990413 79.932407 -1.190098 86.542753 5.227004 2.661661 -1.356870 -4.790429 -3.385443 18.559660 0.558443 9.526427 -16.732231 0.000000 -0.000000 0.000000 2.185224 0.726611 3.224212 1.494734 12.702175 8.783860 1.354515 1.195686 -13.436380 0.000000 -0.000000 0.000000 1.172962 0.033797 6.763802 0.815764 -0.924057 0.814029 -2.077551 -0.216472 2.626177 2.359473 0.724968 -6.963739 -2.309962 -7.268450 18.269186 -34.908961 2.494074 -2.467734 -49.968214 -7.649006 7.802846 9.824124 -23.726427 2.721227 1.722573 -2.380590 2.692105 32.194336 -2.412109 4.186478 47.411275 4.893376 15.017495 -11.724076 25.191410 2.866513 3.297639 2.126271 6.508967 
0.015248 -0.548160 0.990733 81.108370 -1.491535 85.450967 5.686688 2.711090 -4.016793 -6.046414 -1.900215 25.115278 -0.293235 8.372007 -15.668601 0.000000 -0.000000 0.000000 1.708764 -0.161380 4.815528 1.676655 12.652850 8.221681 1.056284 1.020024 -13.467182 0.000000 -0.000000 0.000000 1.224010 0.558932 8.169449 0.660548 -1.155644 0.694886 -2.243574 -0.277215 2.668957 2.687919 0.912594 -5.624473 -1.827074 -6.055772 18.762878 -35.191314 2.627158 -2.520266 -49.160399 -7.609683 7.341356 9.575091 -24.200811 3.087731 1.600115 -2.334619 2.713012 32.552237 -2.192280 4.167157 46.932067 4.581597 15.045179 -11.158424 25.064542 3.233526 3.292309 1.919029 6.934610 
0.018438 -0.549035 0.991197 81.827271 -1.938667 84.685742 5.982205 2.683218 -6.404488 -7.041320 -0.299141 30.426322 -1.007431 7.567315 -13.912084 0.000000 -0.000000 0.000000 1.092890 -0.860901 6.178745 1.677331 12.425577 7.649511 0.851253 1.221445 -13.519941 0.000000 -0.000000 0.000000 0.919209 1.405655 8.962117 0.706411 -1.232536 0.844644 -2.156992 0.031848 2.856300 2.916791 1.248528 -4.655625 -1.380405 -5.296683 19.638990 -35.193703 2.533752 -2.324507 -48.993199 -7.627030 7.237320 9.511944 -24.154869 3.455727 1.678797 -2.369715 2.679750 32.484271 -2.296300 4.943656 46.692145 4.890823 14.952649 -10.948012 24.904725 3.955562 3.075945 2.116505 7.202108 
